<svg xmlns="http://www.w3.org/2000/svg"><symbol id="icon-mail" viewBox="0 0 20 17"><path d="M16.875 0c.829 0 1.624.344 2.21.958.586.613.915 1.444.915 2.311v10.462c0 .867-.33 1.698-.915 2.312a3.057 3.057 0 0 1-2.21.957H3.125a3.057 3.057 0 0 1-2.21-.957A3.347 3.347 0 0 1 0 13.73V3.269C0 2.402.33 1.571.915.958A3.057 3.057 0 0 1 3.125 0h13.75Zm1.875 5.18-8.432 5.191a.605.605 0 0 1-.533.05l-.103-.05L1.25 5.182v8.549c0 .52.198 1.019.55 1.387.35.368.828.574 1.325.574h13.75c.497 0 .974-.206 1.326-.574.351-.368.549-.867.549-1.387V5.18Zm-1.875-3.872H3.125c-.497 0-.974.206-1.326.574a2.012 2.012 0 0 0-.549 1.387v.395L10 9.05l8.75-5.387V3.27c0-.52-.198-1.019-.55-1.387a1.834 1.834 0 0 0-1.325-.574Z"/></symbol><symbol id="icon-phone" viewBox="0 0 38 38"><path d="M29.384 37.159a5.194 5.194 0 0 1-1.1-.121 37.294 37.294 0 0 1-18.279-9.624A35.974 35.974 0 0 1 .107 9.543a5.037 5.037 0 0 1 1.485-4.707L5.99.6A2.2 2.2 0 0 1 7.685.008a2.2 2.2 0 0 1 1.594.956l5.5 8.128a1.76 1.76 0 0 1-.122 2.09l-2.76 3.299a20.829 20.829 0 0 0 4.586 6.478 21.183 21.183 0 0 0 6.676 4.498l3.42-2.717a1.803 1.803 0 0 1 2.046-.132l8.303 5.367a2.199 2.199 0 0 1 .45 3.42l-4.288 4.246a5.213 5.213 0 0 1-3.707 1.518ZM7.509 2.185l-4.4 4.234a2.794 2.794 0 0 0-.824 2.64 33.764 33.764 0 0 0 9.249 16.783 35.084 35.084 0 0 0 17.2 9.051 3.025 3.025 0 0 0 2.75-.814l4.29-4.245-8.018-5.18-3.674 2.925a1.1 1.1 0 0 1-1.011.187 22.06 22.06 0 0 1-8.095-5.224 21.434 21.434 0 0 1-5.356-7.918 1.1 1.1 0 0 1 .264-1.045l2.97-3.552-5.345-7.842Z"/></symbol><symbol id="icon-pointerDot" viewBox="0 0 12 11"><ellipse cx="6" cy="5.5" rx="6" ry="5.5"/></symbol></svg>